<?xml version="1.0" encoding="UTF-8" standalone="no"?>
<!-- Created with Inkscape (http://www.inkscape.org/) -->

<svg
   width="512"
   height="512"
   viewBox="0 0 512 512"
   version="1.1"
   id="svg1"
   sodipodi:docname="logo-dark.svg"
   inkscape:version="1.3 (0e150ed6c4, 2023-07-21)"
   xmlns:inkscape="http://www.inkscape.org/namespaces/inkscape"
   xmlns:sodipodi="http://sodipodi.sourceforge.net/DTD/sodipodi-0.dtd"
   xmlns="http://www.w3.org/2000/svg"
   xmlns:svg="http://www.w3.org/2000/svg">
  <sodipodi:namedview
     id="namedview1"
     pagecolor="#505050"
     bordercolor="#eeeeee"
     borderopacity="1"
     inkscape:showpageshadow="0"
     inkscape:pageopacity="0"
     inkscape:pagecheckerboard="0"
     inkscape:deskcolor="#505050"
     inkscape:document-units="px"
     showgrid="false"
     inkscape:zoom="1.1890995"
     inkscape:cx="193.00319"
     inkscape:cy="248.50738"
     inkscape:window-width="1920"
     inkscape:window-height="1057"
     inkscape:window-x="-8"
     inkscape:window-y="-8"
     inkscape:window-maximized="1"
     inkscape:current-layer="layer5">
    <inkscape:grid
       id="grid15"
       units="px"
       originx="0"
       originy="0"
       spacingx="1"
       spacingy="1"
       empcolor="#0099e5"
       empopacity="0.30196078"
       color="#0099e5"
       opacity="0.14901961"
       empspacing="5"
       dotted="false"
       gridanglex="30"
       gridanglez="30"
       visible="false" />
  </sodipodi:namedview>
  <defs
     id="defs1">
    <inkscape:path-effect
       effect="fillet_chamfer"
       id="path-effect2"
       nodesatellites_param="F,0,1,1,0,10,0,1 @ F,0,1,1,0,10,0,1 @ F,0,1,1,0,10,0,1 @ F,0,1,1,0,10,0,1 @ F,0,0,1,0,0,0,1 @ F,0,0,1,0,0,0,1 @ F,0,0,1,0,0,0,1 @ F,0,0,1,0,0,0,1 @ F,0,0,1,0,0,0,1 @ F,0,0,1,0,0,0,1 @ F,0,0,1,0,0,0,1 @ F,0,0,1,0,0,0,1 @ F,0,0,1,0,0,0,1 @ F,0,1,1,0,10,0,1 | F,0,1,1,0,10,0,1 @ F,0,1,1,0,10,0,1 @ F,0,0,1,0,0,0,1 @ F,0,0,1,0,0,0,1 @ F,0,0,1,0,0,0,1 @ F,0,0,1,0,0,0,1 @ F,0,0,1,0,0,0,1 @ F,0,0,1,0,0,0,1 @ F,0,0,1,0,0,0,1 @ F,0,1,1,0,10,0,1 @ F,0,1,1,0,10,0,1 @ F,0,1,1,0,10,0,1 | F,0,0,1,0,0,0,1 @ F,0,0,1,0,0,0,1 @ F,0,0,1,0,0,0,1 @ F,0,0,1,0,0,0,1 @ F,0,0,1,0,0,0,1 @ F,0,0,1,0,0,0,1 @ F,0,0,1,0,0,0,1 @ F,0,0,1,0,0,0,1 @ F,0,0,1,0,0,0,1 @ F,0,0,1,0,0,0,1 @ F,0,0,1,0,0,0,1 @ F,0,0,1,0,0,0,1 @ F,0,0,1,0,0,0,1 @ F,0,0,1,0,0,0,1 @ F,0,0,1,0,0,0,1 @ F,0,0,1,0,0,0,1 @ F,0,0,1,0,0,0,1 @ F,0,0,1,0,0,0,1 @ F,0,0,1,0,0,0,1 @ F,0,0,1,0,0,0,1 @ F,0,0,1,0,0,0,1 @ F,0,0,1,0,0,0,1 @ F,0,0,1,0,0,0,1 @ F,0,0,1,0,0,0,1 @ F,0,0,1,0,0,0,1 @ F,0,0,1,0,0,0,1 @ F,0,0,1,0,0,0,1 @ F,0,0,1,0,0,0,1 @ F,0,0,1,0,0,0,1 @ F,0,0,1,0,0,0,1 @ F,0,0,1,0,0,0,1 @ F,0,0,1,0,0,0,1 @ F,0,0,1,0,0,0,1 @ F,0,0,1,0,0,0,1 @ F,0,0,1,0,0,0,1 @ F,0,0,1,0,0,0,1 @ F,0,0,1,0,0,0,1 @ F,0,0,1,0,0,0,1 @ F,0,0,1,0,0,0,1 @ F,0,0,1,0,0,0,1 @ F,0,0,1,0,0,0,1 @ F,0,0,1,0,0,0,1 @ F,0,0,1,0,0,0,1 @ F,0,0,1,0,0,0,1 @ F,0,0,1,0,0,0,1 @ F,0,0,1,0,0,0,1 @ F,0,0,1,0,0,0,1 @ F,0,0,1,0,0,0,1 @ F,0,0,1,0,0,0,1 @ F,0,0,1,0,0,0,1 @ F,0,0,1,0,0,0,1 @ F,0,0,1,0,0,0,1 @ F,0,0,1,0,0,0,1 @ F,0,0,1,0,0,0,1 @ F,0,0,1,0,0,0,1 @ F,0,0,1,0,0,0,1 @ F,0,0,1,0,0,0,1 @ F,0,0,1,0,0,0,1 @ F,0,0,1,0,0,0,1 @ F,0,0,1,0,0,0,1 @ F,0,0,1,0,0,0,1 @ F,0,0,1,0,0,0,1 @ F,0,0,1,0,0,0,1 | F,0,0,1,0,0,0,1 @ F,0,0,1,0,0,0,1 @ F,0,0,1,0,0,0,1 @ F,0,0,1,0,0,0,1 @ F,0,0,1,0,0,0,1 @ F,0,0,1,0,0,0,1 @ F,0,0,1,0,0,0,1 @ F,0,0,1,0,0,0,1 @ F,0,0,1,0,0,0,1 @ F,0,0,1,0,0,0,1 @ F,0,0,1,0,0,0,1 @ F,0,0,1,0,0,0,1 @ F,0,0,1,0,0,0,1 @ F,0,0,1,0,0,0,1 @ F,0,0,1,0,0,0,1 @ F,0,0,1,0,0,0,1 @ F,0,0,1,0,0,0,1 @ F,0,0,1,0,0,0,1 @ F,0,0,1,0,0,0,1 @ F,0,0,1,0,0,0,1 @ F,0,0,1,0,0,0,1 @ F,0,0,1,0,0,0,1 @ F,0,0,1,0,0,0,1 @ F,0,0,1,0,0,0,1 @ F,0,0,1,0,0,0,1 @ F,0,0,1,0,0,0,1 @ F,0,0,1,0,0,0,1 @ F,0,0,1,0,0,0,1 @ F,0,0,1,0,0,0,1 @ F,0,0,1,0,0,0,1 @ F,0,0,1,0,0,0,1 @ F,0,0,1,0,0,0,1 @ F,0,0,1,0,0,0,1 @ F,0,0,1,0,0,0,1 @ F,0,0,1,0,0,0,1 @ F,0,0,1,0,0,0,1 @ F,0,0,1,0,0,0,1 @ F,0,0,1,0,0,0,1 @ F,0,0,1,0,0,0,1 @ F,0,0,1,0,0,0,1 @ F,0,0,1,0,0,0,1 @ F,0,0,1,0,0,0,1 @ F,0,0,1,0,0,0,1 @ F,0,0,1,0,0,0,1 @ F,0,0,1,0,0,0,1 @ F,0,0,1,0,0,0,1 @ F,0,0,1,0,0,0,1 @ F,0,0,1,0,0,0,1 @ F,0,0,1,0,0,0,1 @ F,0,0,1,0,0,0,1 @ F,0,0,1,0,0,0,1 @ F,0,0,1,0,0,0,1 @ F,0,0,1,0,0,0,1 @ F,0,0,1,0,0,0,1 @ F,0,0,1,0,0,0,1 @ F,0,0,1,0,0,0,1 @ F,0,0,1,0,0,0,1 @ F,0,0,1,0,0,0,1 @ F,0,0,1,0,0,0,1 @ F,0,0,1,0,0,0,1 @ F,0,0,1,0,0,0,1 @ F,0,0,1,0,0,0,1 @ F,0,0,1,0,0,0,1 @ F,0,0,1,0,0,0,1 @ F,0,0,1,0,0,0,1 @ F,0,0,1,0,0,0,1 @ F,0,0,1,0,0,0,1 @ F,0,0,1,0,0,0,1 @ F,0,0,1,0,0,0,1 @ F,0,0,1,0,0,0,1 @ F,0,0,1,0,0,0,1 @ F,0,0,1,0,0,0,1 @ F,0,0,1,0,0,0,1 @ F,0,0,1,0,0,0,1 @ F,0,0,1,0,0,0,1 @ F,0,0,1,0,0,0,1 @ F,0,0,1,0,0,0,1 @ F,0,0,1,0,0,0,1 @ F,0,0,1,0,0,0,1 @ F,0,0,1,0,0,0,1 @ F,0,0,1,0,0,0,1 @ F,0,0,1,0,0,0,1 @ F,0,0,1,0,0,0,1 @ F,0,0,1,0,0,0,1 @ F,0,0,1,0,0,0,1 @ F,0,0,1,0,0,0,1 @ F,0,0,1,0,0,0,1 @ F,0,0,1,0,0,0,1 @ F,0,0,1,0,0,0,1 @ F,0,0,1,0,0,0,1 @ F,0,0,1,0,0,0,1 @ F,0,0,1,0,0,0,1 @ F,0,0,1,0,0,0,1 @ F,0,0,1,0,0,0,1 @ F,0,0,1,0,0,0,1 @ F,0,0,1,0,0,0,1 @ F,0,0,1,0,0,0,1 @ F,0,0,1,0,0,0,1 @ F,0,0,1,0,0,0,1 @ F,0,0,1,0,0,0,1 @ F,0,0,1,0,0,0,1"
       is_visible="true"
       lpeversion="1"
       radius="10"
       unit="px"
       method="auto"
       mode="F"
       chamfer_steps="1"
       flexible="false"
       use_knot_distance="true"
       apply_no_radius="true"
       apply_with_radius="true"
       only_selected="true"
       hide_knots="false" />
    <inkscape:path-effect
       effect="fillet_chamfer"
       id="path-effect18"
       is_visible="true"
       lpeversion="1"
       nodesatellites_param="F,0,0,1,0,0,0,1 @ F,0,0,1,0,0,0,1 @ F,0,0,1,0,0,0,1 @ F,0,0,1,0,0,0,1 @ F,0,0,1,0,0,0,1 @ F,0,0,1,0,0,0,1 @ F,0,0,1,0,0,0,1 @ F,0,0,1,0,0,0,1 @ F,0,0,1,0,0,0,1 @ F,0,0,1,0,0,0,1 @ F,0,0,1,0,0,0,1 @ F,0,0,1,0,0,0,1 @ F,0,0,1,0,0,0,1 @ F,0,0,1,0,0,0,1 @ F,0,0,1,0,0,0,1 @ F,0,0,1,0,0,0,1 @ F,0,0,1,0,7.5356103,0,1 @ F,0,0,1,0,0,0,1 @ F,0,0,1,0,0,0,1 @ F,0,0,1,0,0,0,1 @ F,0,0,1,0,0,0,1 @ F,0,0,1,0,0,0,1 @ F,0,0,1,0,0,0,1 @ F,0,0,1,0,0,0,1 @ F,0,0,1,0,0,0,1 @ F,0,0,1,0,0,0,1 @ F,0,0,1,0,0,0,1 @ F,0,0,1,0,0,0,1 @ F,0,0,1,0,0,0,1 @ F,0,0,1,0,0,0,1 @ F,0,0,1,0,0,0,1 @ F,0,0,1,0,0,0,1 @ F,0,0,1,0,0,0,1 @ F,0,0,1,0,0,0,1 @ F,0,0,1,0,0,0,1 @ F,0,0,1,0,0,0,1 @ F,0,0,1,0,0,0,1 @ F,0,0,1,0,0,0,1 @ F,0,0,1,0,0,0,1 @ F,0,0,1,0,0,0,1 @ F,0,0,1,0,0,0,1 @ F,0,0,1,0,0,0,1 @ F,0,0,1,0,0,0,1 @ F,0,0,1,0,0,0,1 @ F,0,0,1,0,0,0,1 @ F,0,0,1,0,0,0,1 @ F,0,0,1,0,0,0,1 @ F,0,0,1,0,0,0,1 @ F,0,0,1,0,0,0,1 @ F,0,0,1,0,0,0,1 @ F,0,0,1,0,0,0,1 @ F,0,0,1,0,0,0,1 @ F,0,0,1,0,0,0,1 @ F,0,0,1,0,0,0,1 @ F,0,0,1,0,0,0,1 @ F,0,0,1,0,0,0,1 @ F,0,0,1,0,0,0,1 @ F,0,0,1,0,0,0,1"
       radius="0"
       unit="px"
       method="auto"
       mode="F"
       chamfer_steps="1"
       flexible="false"
       use_knot_distance="true"
       apply_no_radius="true"
       apply_with_radius="true"
       only_selected="false"
       hide_knots="false" />
    <inkscape:path-effect
       effect="fillet_chamfer"
       id="path-effect16"
       is_visible="true"
       lpeversion="1"
       nodesatellites_param="F,0,0,1,0,0,0,1 @ F,0,0,1,0,10,0,1 @ F,0,0,1,0,0,0,1"
       radius="10"
       unit="px"
       method="auto"
       mode="F"
       chamfer_steps="1"
       flexible="false"
       use_knot_distance="true"
       apply_no_radius="true"
       apply_with_radius="true"
       only_selected="false"
       hide_knots="false" />
    <inkscape:path-effect
       effect="fillet_chamfer"
       id="path-effect15"
       is_visible="true"
       lpeversion="1"
       nodesatellites_param="F,0,0,1,0,20,0,1 @ F,0,0,1,0,20,0,1 @ F,0,0,1,0,20,0,1"
       radius="20"
       unit="px"
       method="auto"
       mode="F"
       chamfer_steps="1"
       flexible="false"
       use_knot_distance="true"
       apply_no_radius="true"
       apply_with_radius="true"
       only_selected="false"
       hide_knots="false" />
    <rect
       x="64"
       y="64"
       width="384"
       height="384"
       id="rect4" />
    <rect
       x="64"
       y="64"
       width="384"
       height="384"
       id="rect3" />
    <inkscape:path-effect
       effect="fillet_chamfer"
       id="path-effect16-5"
       is_visible="true"
       lpeversion="1"
       nodesatellites_param="F,0,0,1,0,0,0,1 @ F,0,0,1,0,10,0,1 @ F,0,0,1,0,0,0,1"
       radius="10"
       unit="px"
       method="auto"
       mode="F"
       chamfer_steps="1"
       flexible="false"
       use_knot_distance="true"
       apply_no_radius="true"
       apply_with_radius="true"
       only_selected="false"
       hide_knots="false" />
  </defs>
  <g
     inkscape:label="Layer 1"
     inkscape:groupmode="layer"
     id="layer1"
     sodipodi:insensitive="true" />
  <g
     inkscape:groupmode="layer"
     id="layer2"
     inkscape:label="Layer 2"
     sodipodi:insensitive="true"
     style="display:none;opacity:0.5;mix-blend-mode:normal">
    <rect
       style="display:none;fill:none"
       id="rect1"
       width="512"
       height="512"
       x="0"
       y="0" />
    <rect
       style="display:none;fill:#808080;stroke-width:6.26515"
       id="rect2"
       width="384"
       height="384"
       x="64"
       y="64" />
  </g>
  <g
     inkscape:groupmode="layer"
     id="layer4"
     inkscape:label="Layer 3"
     sodipodi:insensitive="true"
     style="display:none">
    <rect
       style="fill:#250000;fill-opacity:1;stroke:#000000;stroke-width:0;stroke-dasharray:none;stroke-opacity:1"
       id="rect5"
       width="76.800003"
       height="76.800003"
       x="64"
       y="64" />
    <rect
       style="fill:#250000;fill-opacity:1;stroke:#000000;stroke-width:0;stroke-dasharray:none;stroke-opacity:1"
       id="rect5-8"
       width="76.800003"
       height="76.800003"
       x="140.8"
       y="64" />
    <rect
       style="fill:#250000;fill-opacity:1;stroke:#000000;stroke-width:0;stroke-dasharray:none;stroke-opacity:1"
       id="rect5-3"
       width="76.800003"
       height="76.800003"
       x="217.60001"
       y="64" />
    <rect
       style="fill:#250000;fill-opacity:1;stroke:#000000;stroke-width:0;stroke-dasharray:none;stroke-opacity:1"
       id="rect5-9"
       width="76.800003"
       height="76.800003"
       x="294.40002"
       y="64" />
    <rect
       style="fill:#250000;fill-opacity:1;stroke:#000000;stroke-width:0;stroke-dasharray:none;stroke-opacity:1"
       id="rect5-5"
       width="76.800003"
       height="76.800003"
       x="371.20001"
       y="64" />
    <rect
       style="fill:#250000;fill-opacity:1;stroke:#000000;stroke-width:0;stroke-dasharray:none;stroke-opacity:1"
       id="rect5-0"
       width="76.800003"
       height="76.800003"
       x="64"
       y="140.8" />
    <rect
       style="fill:#250000;fill-opacity:1;stroke:#000000;stroke-width:0;stroke-dasharray:none;stroke-opacity:1"
       id="rect5-8-7"
       width="76.800003"
       height="76.800003"
       x="140.79999"
       y="140.8" />
    <rect
       style="fill:#250000;fill-opacity:1;stroke:#000000;stroke-width:0;stroke-dasharray:none;stroke-opacity:1"
       id="rect5-3-9"
       width="76.800003"
       height="76.800003"
       x="217.60001"
       y="140.8" />
    <rect
       style="fill:#250000;fill-opacity:1;stroke:#000000;stroke-width:0;stroke-dasharray:none;stroke-opacity:1"
       id="rect5-9-3"
       width="76.800003"
       height="76.800003"
       x="294.40002"
       y="140.8" />
    <rect
       style="fill:#250000;fill-opacity:1;stroke:#000000;stroke-width:0;stroke-dasharray:none;stroke-opacity:1"
       id="rect5-5-5"
       width="76.800003"
       height="76.800003"
       x="371.20001"
       y="140.8" />
    <rect
       style="fill:#250000;fill-opacity:1;stroke:#000000;stroke-width:0;stroke-dasharray:none;stroke-opacity:1"
       id="rect5-94"
       width="76.800003"
       height="76.800003"
       x="64"
       y="217.60001" />
    <rect
       style="fill:#250000;fill-opacity:1;stroke:#000000;stroke-width:0;stroke-dasharray:none;stroke-opacity:1"
       id="rect5-8-2"
       width="76.800003"
       height="76.800003"
       x="140.79999"
       y="217.60001" />
    <rect
       style="fill:#250000;fill-opacity:1;stroke:#000000;stroke-width:0;stroke-dasharray:none;stroke-opacity:1"
       id="rect5-3-4"
       width="76.800003"
       height="76.800003"
       x="217.60001"
       y="217.60001" />
    <rect
       style="fill:#250000;fill-opacity:1;stroke:#000000;stroke-width:0;stroke-dasharray:none;stroke-opacity:1"
       id="rect5-9-1"
       width="76.800003"
       height="76.800003"
       x="294.40002"
       y="217.60001" />
    <rect
       style="fill:#250000;fill-opacity:1;stroke:#000000;stroke-width:0;stroke-dasharray:none;stroke-opacity:1"
       id="rect5-5-50"
       width="76.800003"
       height="76.800003"
       x="371.20001"
       y="217.60001" />
    <rect
       style="fill:#250000;fill-opacity:1;stroke:#000000;stroke-width:0;stroke-dasharray:none;stroke-opacity:1"
       id="rect5-01"
       width="76.800003"
       height="76.800003"
       x="64.000031"
       y="294.40002" />
    <rect
       style="fill:#250000;fill-opacity:1;stroke:#000000;stroke-width:0;stroke-dasharray:none;stroke-opacity:1"
       id="rect5-8-1"
       width="76.800003"
       height="76.800003"
       x="140.80002"
       y="294.40002" />
    <rect
       style="fill:#250000;fill-opacity:1;stroke:#000000;stroke-width:0;stroke-dasharray:none;stroke-opacity:1"
       id="rect5-3-8"
       width="76.800003"
       height="76.800003"
       x="217.60004"
       y="294.40002" />
    <rect
       style="fill:#250000;fill-opacity:1;stroke:#000000;stroke-width:0;stroke-dasharray:none;stroke-opacity:1"
       id="rect5-9-2"
       width="76.800003"
       height="76.800003"
       x="294.40005"
       y="294.40002" />
    <rect
       style="fill:#250000;fill-opacity:1;stroke:#000000;stroke-width:0;stroke-dasharray:none;stroke-opacity:1"
       id="rect5-5-6"
       width="76.800003"
       height="76.800003"
       x="371.20004"
       y="294.40002" />
    <rect
       style="fill:#250000;fill-opacity:1;stroke:#000000;stroke-width:0;stroke-dasharray:none;stroke-opacity:1"
       id="rect5-7"
       width="76.800003"
       height="76.800003"
       x="64.000031"
       y="371.20001" />
    <rect
       style="fill:#250000;fill-opacity:1;stroke:#000000;stroke-width:0;stroke-dasharray:none;stroke-opacity:1"
       id="rect5-8-27"
       width="76.800003"
       height="76.800003"
       x="140.80002"
       y="371.20001" />
    <rect
       style="fill:#250000;fill-opacity:1;stroke:#000000;stroke-width:0;stroke-dasharray:none;stroke-opacity:1"
       id="rect5-3-6"
       width="76.800003"
       height="76.800003"
       x="217.60001"
       y="371.20001" />
    <rect
       style="fill:#250000;fill-opacity:1;stroke:#000000;stroke-width:0;stroke-dasharray:none;stroke-opacity:1"
       id="rect5-9-29"
       width="76.800003"
       height="76.800003"
       x="294.40005"
       y="371.20001" />
    <rect
       style="fill:#250000;fill-opacity:1;stroke:#000000;stroke-width:0;stroke-dasharray:none;stroke-opacity:1"
       id="rect5-5-1"
       width="76.800003"
       height="76.800003"
       x="371.20004"
       y="371.20001" />
  </g>
  <g
     inkscape:groupmode="layer"
     id="layer5"
     inkscape:label="Layer 4">
    <path
       d="m 64,74 v 364 a 10,10 45 0 0 10,10 h 56.80078 a 10,10 135 0 0 10,-10 V 150.80078 a 10,10 135 0 1 10,-10 l 56.79883,0 c 0.40959,-2.1e-4 0.81545,-0.0619 1.20312,-0.17969 0.38769,-0.11781 0.75721,-0.2918 1.09766,-0.51953 0.34094,-0.2275 0.64499,-0.50311 0.90234,-0.8164 0.25736,-0.31331 0.46806,-0.66435 0.625,-1.04297 0.15647,-0.37841 0.25543,-0.77654 0.29493,-1.17969 0.0395,-0.40315 0.0195,-0.81131 -0.0605,-1.21289 -0.0798,-0.40174 -0.21733,-0.78713 -0.4082,-1.14453 -0.19088,-0.35741 -0.43511,-0.68685 -0.72461,-0.97656 L 147.87185,71.071065 A 24.142148,24.142148 22.49999 0 0 130.80078,64 H 74 A 10,10 135 0 0 64,74 Z m 307.19922,0 v 287.19922 a 10,10 135 0 1 -10,10 h -56.79883 c -0.54953,1.1e-4 -1.08799,0.10993 -1.58594,0.3164 -0.49795,0.20649 -0.95539,0.50965 -1.34375,0.89844 -0.38819,0.38828 -0.69229,0.84615 -0.89843,1.34375 -0.20615,0.4976 -0.31434,1.03494 -0.31446,1.58399 -1.4e-4,0.54938 0.10831,1.088 0.31446,1.58593 0.20614,0.49795 0.51,0.95525 0.89843,1.34375 l 62.65745,62.65745 A 24.142136,24.142136 22.5 0 0 381.19922,448 H 438 a 10,10 135 0 0 10,-10 L 448,74 A 10,10 45 0 0 438,64 h -56.80078 a 10,10 135 0 0 -10,10 z M 256,140.80078 c -1.43767,2e-5 -2.87244,0.0814 -4.29883,0.24219 -1.42639,0.16073 -2.84447,0.40077 -4.24609,0.7207 -1.40175,0.31985 -2.78368,0.71736 -4.13867,1.19141 -1.35499,0.47405 -2.6831,1.02466 -3.97852,1.64844 -1.29499,0.62372 -2.55246,1.31846 -3.76758,2.08203 -1.21512,0.76356 -2.38794,1.59599 -3.51172,2.49218 -1.12395,0.89634 -2.196,1.85421 -3.21093,2.86914 -1.01494,1.01494 -1.97282,2.08699 -2.86914,3.21094 -0.89661,1.12403 -1.7283,2.29627 -2.49219,3.51172 -0.7639,1.21545 -1.46002,2.47416 -2.08399,3.76953 -0.6237,1.29511 -1.17438,2.62385 -1.64843,3.97852 -0.47405,1.35466 -0.87149,2.7353 -1.19141,4.13672 -0.31993,1.40162 -0.55997,2.8197 -0.7207,4.24609 -0.16074,1.42639 -0.24218,2.86115 -0.24219,4.29883 10e-6,1.43767 0.0814,2.87244 0.24219,4.29883 0.16073,1.42639 0.40077,2.84447 0.7207,4.24609 0.31985,1.40175 0.71736,2.78368 1.19141,4.13867 0.47405,1.35499 1.02466,2.6831 1.64843,3.97852 0.62397,1.29537 1.32009,2.55408 2.08399,3.76953 0.76389,1.21545 1.59558,2.38769 2.49219,3.51172 0.89632,1.12395 1.8542,2.196 2.86914,3.21094 1.01493,1.01493 2.08698,1.9728 3.21093,2.86914 1.12378,0.89619 2.2966,1.72862 3.51172,2.49218 1.21512,0.76357 2.47259,1.45831 3.76758,2.08203 1.29542,0.62378 2.62353,1.17439 3.97852,1.64844 1.35499,0.47405 2.73692,0.87156 4.13867,1.19141 1.40162,0.31993 2.8197,0.55997 4.24609,0.7207 1.42639,0.16074 2.86116,0.24217 4.29883,0.24219 1.43767,-2e-5 2.87244,-0.0815 4.29883,-0.24219 1.42639,-0.16073 2.84447,-0.40077 4.24609,-0.7207 1.40175,-0.31985 2.78368,-0.71736 4.13867,-1.19141 1.35499,-0.47405 2.6831,-1.02466 3.97852,-1.64844 1.29499,-0.62372 2.55246,-1.31846 3.76758,-2.08203 1.21512,-0.76356 2.38794,-1.59599 3.51172,-2.49218 1.12395,-0.89634 2.196,-1.85421 3.21093,-2.86914 1.01494,-1.01494 1.97282,-2.08699 2.86914,-3.21094 0.89661,-1.12403 1.7283,-2.29627 2.49219,-3.51172 0.7639,-1.21545 1.46002,-2.47416 2.08399,-3.76953 0.62377,-1.29542 1.17438,-2.62353 1.64843,-3.97852 0.47405,-1.35499 0.87156,-2.73692 1.19141,-4.13867 0.31993,-1.40162 0.55997,-2.8197 0.7207,-4.24609 0.16074,-1.42639 0.24218,-2.86116 0.24219,-4.29883 -3e-5,-0.95737 -0.0359,-1.91445 -0.10742,-2.86914 -0.0718,-0.95486 -0.1793,-1.9067 -0.32227,-2.85352 -0.14247,-0.94706 -0.32033,-1.8885 -0.5332,-2.82226 -0.21338,-0.93343 -0.4616,-1.85857 -0.74414,-2.77344 -0.28189,-0.91447 -0.59787,-1.81811 -0.94727,-2.70899 -0.34983,-0.8916 -0.73293,-1.76983 -1.14843,-2.63281 -0.41545,-0.86277 -0.86303,-1.70974 -1.3418,-2.53906 -0.47862,-0.82929 -0.9881,-1.64043 -1.52734,-2.43164 -0.54,-0.7912 -1.10941,-1.56193 -1.70704,-2.31055 -0.59699,-0.74834 -1.2218,-1.47412 -1.87304,-2.17578 -0.65087,-0.70213 -1.32778,-1.3797 -2.0293,-2.03125 -0.70229,-0.65128 -1.42873,-1.27608 -2.17773,-1.87305 -0.74866,-0.59695 -1.51939,-1.16573 -2.31055,-1.70507 -0.79122,-0.53926 -1.60235,-1.04873 -2.43164,-1.52735 -0.82869,-0.47871 -1.67499,-0.92631 -2.53711,-1.34179 -0.86296,-0.41552 -1.74121,-0.7986 -2.63281,-1.14844 -0.89149,-0.3501 -1.79579,-0.66673 -2.71094,-0.94922 -0.91489,-0.28188 -1.84003,-0.52945 -2.77344,-0.74219 -0.93374,-0.21352 -1.87518,-0.39204 -2.82226,-0.53515 -0.94685,-0.14231 -1.8987,-0.24916 -2.85352,-0.32032 -0.95469,-0.0716 -1.91177,-0.10739 -2.86914,-0.10742 z M 256,256 c -1.25776,5e-5 -2.51348,0.0623 -3.76367,0.18555 -1.25021,0.12319 -2.49493,0.30728 -3.72852,0.55273 -1.23339,0.24543 -2.45234,0.55132 -3.65429,0.91602 -1.20197,0.36469 -2.38702,0.7882 -3.54883,1.26953 -1.16184,0.48102 -2.29848,1.01947 -3.40625,1.61133 -1.10778,0.59184 -2.18674,1.23714 -3.23242,1.93554 -1.04563,0.69902 -2.05645,1.44891 -3.02735,2.2461 -0.97088,0.79717 -1.90189,1.64166 -2.79101,2.53125 -0.88925,0.88917 -1.73441,1.82013 -2.53125,2.79101 -0.79686,0.9709 -1.54546,1.98177 -2.24414,3.02735 -0.69876,1.04564 -1.34533,2.12464 -1.9375,3.23242 -0.59219,1.10777 -1.13,2.24437 -1.61133,3.40625 -0.48133,1.16181 -0.90485,2.34686 -1.26953,3.54883 -0.3647,1.20195 -0.67059,2.4209 -0.91602,3.65429 -0.24545,1.23359 -0.42954,2.47833 -0.55273,3.72852 -0.1232,1.25019 -0.1855,2.50591 -0.18555,3.76367 1.1e-4,1.25743 0.0623,2.51381 0.18555,3.76367 0.12319,1.24988 0.30735,2.49331 0.55273,3.72656 0.24536,1.23374 0.55132,2.45397 0.91602,3.65625 0.36468,1.2023 0.78814,2.3867 1.26953,3.54883 0.48133,1.16188 1.01914,2.29848 1.61133,3.40625 0.59217,1.10778 1.23874,2.18678 1.9375,3.23242 0.69868,1.04558 1.44728,2.05645 2.24414,3.02735 0.79684,0.97088 1.642,1.90184 2.53125,2.79101 0.88917,0.88925 1.82013,1.73441 2.79101,2.53125 0.9709,0.79686 1.98177,1.54546 3.02735,2.24414 1.04564,0.69876 2.12464,1.34533 3.23242,1.9375 1.10777,0.59219 2.24437,1.13001 3.40625,1.61133 1.16181,0.48133 2.34686,0.90485 3.54883,1.26953 1.20195,0.3647 2.4209,0.6706 3.65429,0.91602 h 0.002 c 0.46813,0.0461 0.90688,0.10957 1.3164,0.1875 0.40952,0.0779 0.78998,0.17094 1.14453,0.27734 0.35456,0.10641 0.68308,0.22589 0.98633,0.35743 0.30326,0.13152 0.58033,0.27441 0.83594,0.42773 0.25561,0.15332 0.48954,0.31652 0.70117,0.48828 0.21163,0.17177 0.40096,0.35219 0.57227,0.53906 0.34259,0.37375 0.60923,0.77534 0.8125,1.18946 0.20326,0.41411 0.3443,0.84176 0.4375,1.26953 0.0932,0.42776 0.13798,0.85485 0.15039,1.26953 0.0124,0.41468 -0.008,0.81654 -0.0469,1.19141 -0.0391,0.37485 -0.0969,0.72293 -0.1582,1.03125 -0.24543,1.23339 -0.55132,2.45234 -0.91602,3.65429 -0.36469,1.20197 -0.7882,2.38701 -1.26953,3.54883 -0.48096,1.16217 -1.01752,2.30011 -1.60937,3.4082 -0.59186,1.10811 -1.23905,2.18642 -1.9375,3.23243 -0.69902,1.0456 -1.44891,2.05645 -2.2461,3.02734 -0.79717,0.97088 -1.64166,1.90188 -2.53125,2.79101 -0.88917,0.88925 -1.82013,1.73441 -2.79101,2.53125 -0.9709,0.79686 -1.98177,1.54544 -3.02735,2.24415 -1.04564,0.69873 -2.12464,1.34531 -3.23242,1.9375 -1.10777,0.59217 -2.24436,1.13001 -3.40625,1.61132 -1.16181,0.48133 -2.34686,0.90485 -3.54883,1.26953 -1.20195,0.3647 -2.4209,0.67059 -3.65429,0.91602 -1.23362,0.24512 -2.47833,0.42988 -3.72852,0.55273 -1.25019,0.12287 -2.50594,0.18387 -3.76367,0.1836 1.82857,7e-5 3.65575,-0.065 5.47851,-0.19531 1.82278,-0.13029 3.6412,-0.32578 5.45118,-0.58594 1.80992,-0.26007 3.6089,-0.58439 5.39453,-0.97266 1.78563,-0.38827 3.558,-0.84048 5.3125,-1.35547 1.75466,-0.51526 3.49078,-1.09367 5.20312,-1.73242 1.71235,-0.63874 3.40099,-1.33789 5.06446,-2.09765 1.66332,-0.75972 3.29847,-1.57921 4.90234,-2.45508 1.60387,-0.87589 3.17657,-1.80818 4.71484,-2.79688 1.53821,-0.98857 3.04108,-2.03187 4.50391,-3.12695 1.46283,-1.0951 2.88571,-2.24205 4.26758,-3.43945 1.38191,-1.19746 2.71956,-2.44418 4.01172,-3.73633 1.29215,-1.29216 2.53889,-2.6298 3.73632,-4.01172 1.19776,-1.38183 2.346,-2.80474 3.44141,-4.26758 1.09542,-1.46283 2.13807,-2.96566 3.12695,-4.50391 0.98837,-1.5383 1.92132,-3.11097 2.79688,-4.71484 0.87555,-1.60387 1.69374,-3.23905 2.45312,-4.90234 0.75978,-1.66346 1.45891,-3.3521 2.09766,-5.06446 0.63875,-1.71234 1.21715,-3.44846 1.73242,-5.20312 0.51532,-1.75447 0.96688,-3.52687 1.35547,-5.3125 0.38859,-1.78563 0.71423,-3.58458 0.97461,-5.39453 0.26016,-1.80998 0.45565,-3.62841 0.58594,-5.45117 0.13029,-1.82277 0.19539,-3.64994 0.19531,-5.47852 -9e-5,-0.87446 -0.0301,-1.7487 -0.0898,-2.62109 -0.0595,-0.87193 -0.14874,-1.74159 -0.26758,-2.60743 -0.11898,-0.86612 -0.2675,-1.72798 -0.44531,-2.58398 -0.17794,-0.85643 -0.3851,-1.70654 -0.6211,-2.54883 -0.23582,-0.84144 -0.5003,-1.67465 -0.79297,-2.49804 -0.29308,-0.82388 -0.61424,-1.63751 -0.96289,-2.43946 -0.34795,-0.80162 -0.72317,-1.59116 -1.125,-2.36719 -0.4022,-0.77676 -0.83085,-1.53962 -1.28515,-2.2871 -0.45473,-0.74664 -0.93484,-1.47754 -1.43946,-2.19141 -0.50402,-0.71444 -1.03235,-1.41149 -1.58398,-2.08984 -0.55155,-0.67827 -1.12611,-1.33752 -1.72266,-1.97657 -0.59655,-0.63873 -1.21477,-1.25696 -1.85351,-1.85351 -0.63905,-0.59655 -1.2983,-1.17111 -1.97657,-1.72266 -0.67835,-0.55163 -1.3754,-1.07995 -2.08984,-1.58398 -0.71451,-0.50466 -1.44606,-0.98476 -2.19336,-1.43946 -0.74685,-0.45425 -1.50905,-0.8829 -2.28515,-1.28515 -0.77603,-0.40183 -1.56557,-0.77705 -2.36719,-1.125 -0.80195,-0.34865 -1.61558,-0.6698 -2.43946,-0.96289 -0.82403,-0.29271 -1.65788,-0.55719 -2.5,-0.79297 -0.84161,-0.23596 -1.69109,-0.44311 -2.54687,-0.6211 -0.856,-0.17779 -1.71786,-0.32633 -2.58398,-0.44531 -0.86584,-0.11884 -1.7355,-0.20808 -2.60743,-0.26758 C 257.7486,256.03006 256.87446,256.00009 256,256 Z"
       style="opacity:1;fill:#cccccc;stroke-width:0;stroke-linecap:round;stroke-linejoin:round;paint-order:fill markers stroke"
       id="path2"
       inkscape:path-effect="#path-effect2"
       inkscape:original-d="m 64,64 v 384 h 76.80078 V 140.80078 h 66.79883 c 0.40959,-2.1e-4 0.81545,-0.0619 1.20312,-0.17969 0.38769,-0.11781 0.75721,-0.2918 1.09766,-0.51953 0.34094,-0.2275 0.64499,-0.50311 0.90234,-0.8164 0.25736,-0.31331 0.46806,-0.66435 0.625,-1.04297 0.15647,-0.37841 0.25543,-0.77654 0.29493,-1.17969 0.0395,-0.40315 0.0195,-0.81131 -0.0605,-1.21289 -0.0798,-0.40174 -0.21733,-0.78713 -0.4082,-1.14453 -0.19088,-0.35741 -0.43511,-0.68685 -0.72461,-0.97656 L 140.80078,64 Z m 307.19922,0 v 307.19922 h -66.79883 c -0.54953,1.1e-4 -1.08799,0.10993 -1.58594,0.3164 -0.49795,0.20649 -0.95539,0.50965 -1.34375,0.89844 -0.38819,0.38828 -0.69229,0.84615 -0.89843,1.34375 -0.20615,0.4976 -0.31434,1.03494 -0.31446,1.58399 -1.4e-4,0.54938 0.10831,1.088 0.31446,1.58593 0.20614,0.49795 0.51,0.95525 0.89843,1.34375 L 371.19922,448 H 448 V 64 Z M 256,140.80078 c -1.43767,2e-5 -2.87244,0.0814 -4.29883,0.24219 -1.42639,0.16073 -2.84447,0.40077 -4.24609,0.7207 -1.40175,0.31985 -2.78368,0.71736 -4.13867,1.19141 -1.35499,0.47405 -2.6831,1.02466 -3.97852,1.64844 -1.29499,0.62372 -2.55246,1.31846 -3.76758,2.08203 -1.21512,0.76356 -2.38794,1.59599 -3.51172,2.49218 -1.12395,0.89634 -2.196,1.85421 -3.21093,2.86914 -1.01494,1.01494 -1.97282,2.08699 -2.86914,3.21094 -0.89661,1.12403 -1.7283,2.29627 -2.49219,3.51172 -0.7639,1.21545 -1.46002,2.47416 -2.08399,3.76953 -0.6237,1.29511 -1.17438,2.62385 -1.64843,3.97852 -0.47405,1.35466 -0.87149,2.7353 -1.19141,4.13672 -0.31993,1.40162 -0.55997,2.8197 -0.7207,4.24609 -0.16074,1.42639 -0.24218,2.86115 -0.24219,4.29883 10e-6,1.43767 0.0814,2.87244 0.24219,4.29883 0.16073,1.42639 0.40077,2.84447 0.7207,4.24609 0.31985,1.40175 0.71736,2.78368 1.19141,4.13867 0.47405,1.35499 1.02466,2.6831 1.64843,3.97852 0.62397,1.29537 1.32009,2.55408 2.08399,3.76953 0.76389,1.21545 1.59558,2.38769 2.49219,3.51172 0.89632,1.12395 1.8542,2.196 2.86914,3.21094 1.01493,1.01493 2.08698,1.9728 3.21093,2.86914 1.12378,0.89619 2.2966,1.72862 3.51172,2.49218 1.21512,0.76357 2.47259,1.45831 3.76758,2.08203 1.29542,0.62378 2.62353,1.17439 3.97852,1.64844 1.35499,0.47405 2.73692,0.87156 4.13867,1.19141 1.40162,0.31993 2.8197,0.55997 4.24609,0.7207 1.42639,0.16074 2.86116,0.24217 4.29883,0.24219 1.43767,-2e-5 2.87244,-0.0815 4.29883,-0.24219 1.42639,-0.16073 2.84447,-0.40077 4.24609,-0.7207 1.40175,-0.31985 2.78368,-0.71736 4.13867,-1.19141 1.35499,-0.47405 2.6831,-1.02466 3.97852,-1.64844 1.29499,-0.62372 2.55246,-1.31846 3.76758,-2.08203 1.21512,-0.76356 2.38794,-1.59599 3.51172,-2.49218 1.12395,-0.89634 2.196,-1.85421 3.21093,-2.86914 1.01494,-1.01494 1.97282,-2.08699 2.86914,-3.21094 0.89661,-1.12403 1.7283,-2.29627 2.49219,-3.51172 0.7639,-1.21545 1.46002,-2.47416 2.08399,-3.76953 0.62377,-1.29542 1.17438,-2.62353 1.64843,-3.97852 0.47405,-1.35499 0.87156,-2.73692 1.19141,-4.13867 0.31993,-1.40162 0.55997,-2.8197 0.7207,-4.24609 0.16074,-1.42639 0.24218,-2.86116 0.24219,-4.29883 -3e-5,-0.95737 -0.0359,-1.91445 -0.10742,-2.86914 -0.0718,-0.95486 -0.1793,-1.9067 -0.32227,-2.85352 -0.14247,-0.94706 -0.32033,-1.8885 -0.5332,-2.82226 -0.21338,-0.93343 -0.4616,-1.85857 -0.74414,-2.77344 -0.28189,-0.91447 -0.59787,-1.81811 -0.94727,-2.70899 -0.34983,-0.8916 -0.73293,-1.76983 -1.14843,-2.63281 -0.41545,-0.86277 -0.86303,-1.70974 -1.3418,-2.53906 -0.47862,-0.82929 -0.9881,-1.64043 -1.52734,-2.43164 -0.54,-0.7912 -1.10941,-1.56193 -1.70704,-2.31055 -0.59699,-0.74834 -1.2218,-1.47412 -1.87304,-2.17578 -0.65087,-0.70213 -1.32778,-1.3797 -2.0293,-2.03125 -0.70229,-0.65128 -1.42873,-1.27608 -2.17773,-1.87305 -0.74866,-0.59695 -1.51939,-1.16573 -2.31055,-1.70507 -0.79122,-0.53926 -1.60235,-1.04873 -2.43164,-1.52735 -0.82869,-0.47871 -1.67499,-0.92631 -2.53711,-1.34179 -0.86296,-0.41552 -1.74121,-0.7986 -2.63281,-1.14844 -0.89149,-0.3501 -1.79579,-0.66673 -2.71094,-0.94922 -0.91489,-0.28188 -1.84003,-0.52945 -2.77344,-0.74219 -0.93374,-0.21352 -1.87518,-0.39204 -2.82226,-0.53515 -0.94685,-0.14231 -1.8987,-0.24916 -2.85352,-0.32032 -0.95469,-0.0716 -1.91177,-0.10739 -2.86914,-0.10742 z M 256,256 c -1.25776,5e-5 -2.51348,0.0623 -3.76367,0.18555 -1.25021,0.12319 -2.49493,0.30728 -3.72852,0.55273 -1.23339,0.24543 -2.45234,0.55132 -3.65429,0.91602 -1.20197,0.36469 -2.38702,0.7882 -3.54883,1.26953 -1.16184,0.48102 -2.29848,1.01947 -3.40625,1.61133 -1.10778,0.59184 -2.18674,1.23714 -3.23242,1.93554 -1.04563,0.69902 -2.05645,1.44891 -3.02735,2.2461 -0.97088,0.79717 -1.90189,1.64166 -2.79101,2.53125 -0.88925,0.88917 -1.73441,1.82013 -2.53125,2.79101 -0.79686,0.9709 -1.54546,1.98177 -2.24414,3.02735 -0.69876,1.04564 -1.34533,2.12464 -1.9375,3.23242 -0.59219,1.10777 -1.13,2.24437 -1.61133,3.40625 -0.48133,1.16181 -0.90485,2.34686 -1.26953,3.54883 -0.3647,1.20195 -0.67059,2.4209 -0.91602,3.65429 -0.24545,1.23359 -0.42954,2.47833 -0.55273,3.72852 -0.1232,1.25019 -0.1855,2.50591 -0.18555,3.76367 1.1e-4,1.25743 0.0623,2.51381 0.18555,3.76367 0.12319,1.24988 0.30735,2.49331 0.55273,3.72656 0.24536,1.23374 0.55132,2.45397 0.91602,3.65625 0.36468,1.2023 0.78814,2.3867 1.26953,3.54883 0.48133,1.16188 1.01914,2.29848 1.61133,3.40625 0.59217,1.10778 1.23874,2.18678 1.9375,3.23242 0.69868,1.04558 1.44728,2.05645 2.24414,3.02735 0.79684,0.97088 1.642,1.90184 2.53125,2.79101 0.88917,0.88925 1.82013,1.73441 2.79101,2.53125 0.9709,0.79686 1.98177,1.54546 3.02735,2.24414 1.04564,0.69876 2.12464,1.34533 3.23242,1.9375 1.10777,0.59219 2.24437,1.13001 3.40625,1.61133 1.16181,0.48133 2.34686,0.90485 3.54883,1.26953 1.20195,0.3647 2.4209,0.6706 3.65429,0.91602 h 0.002 c 0.46813,0.0461 0.90688,0.10957 1.3164,0.1875 0.40952,0.0779 0.78998,0.17094 1.14453,0.27734 0.35456,0.10641 0.68308,0.22589 0.98633,0.35743 0.30326,0.13152 0.58033,0.27441 0.83594,0.42773 0.25561,0.15332 0.48954,0.31652 0.70117,0.48828 0.21163,0.17177 0.40096,0.35219 0.57227,0.53906 0.34259,0.37375 0.60923,0.77534 0.8125,1.18946 0.20326,0.41411 0.3443,0.84176 0.4375,1.26953 0.0932,0.42776 0.13798,0.85485 0.15039,1.26953 0.0124,0.41468 -0.008,0.81654 -0.0469,1.19141 -0.0391,0.37485 -0.0969,0.72293 -0.1582,1.03125 -0.24543,1.23339 -0.55132,2.45234 -0.91602,3.65429 -0.36469,1.20197 -0.7882,2.38701 -1.26953,3.54883 -0.48096,1.16217 -1.01752,2.30011 -1.60937,3.4082 -0.59186,1.10811 -1.23905,2.18642 -1.9375,3.23243 -0.69902,1.0456 -1.44891,2.05645 -2.2461,3.02734 -0.79717,0.97088 -1.64166,1.90188 -2.53125,2.79101 -0.88917,0.88925 -1.82013,1.73441 -2.79101,2.53125 -0.9709,0.79686 -1.98177,1.54544 -3.02735,2.24415 -1.04564,0.69873 -2.12464,1.34531 -3.23242,1.9375 -1.10777,0.59217 -2.24436,1.13001 -3.40625,1.61132 -1.16181,0.48133 -2.34686,0.90485 -3.54883,1.26953 -1.20195,0.3647 -2.4209,0.67059 -3.65429,0.91602 -1.23362,0.24512 -2.47833,0.42988 -3.72852,0.55273 -1.25019,0.12287 -2.50594,0.18387 -3.76367,0.1836 1.82857,7e-5 3.65575,-0.065 5.47851,-0.19531 1.82278,-0.13029 3.6412,-0.32578 5.45118,-0.58594 1.80992,-0.26007 3.6089,-0.58439 5.39453,-0.97266 1.78563,-0.38827 3.558,-0.84048 5.3125,-1.35547 1.75466,-0.51526 3.49078,-1.09367 5.20312,-1.73242 1.71235,-0.63874 3.40099,-1.33789 5.06446,-2.09765 1.66332,-0.75972 3.29847,-1.57921 4.90234,-2.45508 1.60387,-0.87589 3.17657,-1.80818 4.71484,-2.79688 1.53821,-0.98857 3.04108,-2.03187 4.50391,-3.12695 1.46283,-1.0951 2.88571,-2.24205 4.26758,-3.43945 1.38191,-1.19746 2.71956,-2.44418 4.01172,-3.73633 1.29215,-1.29216 2.53889,-2.6298 3.73632,-4.01172 1.19776,-1.38183 2.346,-2.80474 3.44141,-4.26758 1.09542,-1.46283 2.13807,-2.96566 3.12695,-4.50391 0.98837,-1.5383 1.92132,-3.11097 2.79688,-4.71484 0.87555,-1.60387 1.69374,-3.23905 2.45312,-4.90234 0.75978,-1.66346 1.45891,-3.3521 2.09766,-5.06446 0.63875,-1.71234 1.21715,-3.44846 1.73242,-5.20312 0.51532,-1.75447 0.96688,-3.52687 1.35547,-5.3125 0.38859,-1.78563 0.71423,-3.58458 0.97461,-5.39453 0.26016,-1.80998 0.45565,-3.62841 0.58594,-5.45117 0.13029,-1.82277 0.19539,-3.64994 0.19531,-5.47852 -9e-5,-0.87446 -0.0301,-1.7487 -0.0898,-2.62109 -0.0595,-0.87193 -0.14874,-1.74159 -0.26758,-2.60743 -0.11898,-0.86612 -0.2675,-1.72798 -0.44531,-2.58398 -0.17794,-0.85643 -0.3851,-1.70654 -0.6211,-2.54883 -0.23582,-0.84144 -0.5003,-1.67465 -0.79297,-2.49804 -0.29308,-0.82388 -0.61424,-1.63751 -0.96289,-2.43946 -0.34795,-0.80162 -0.72317,-1.59116 -1.125,-2.36719 -0.4022,-0.77676 -0.83085,-1.53962 -1.28515,-2.2871 -0.45473,-0.74664 -0.93484,-1.47754 -1.43946,-2.19141 -0.50402,-0.71444 -1.03235,-1.41149 -1.58398,-2.08984 -0.55155,-0.67827 -1.12611,-1.33752 -1.72266,-1.97657 -0.59655,-0.63873 -1.21477,-1.25696 -1.85351,-1.85351 -0.63905,-0.59655 -1.2983,-1.17111 -1.97657,-1.72266 -0.67835,-0.55163 -1.3754,-1.07995 -2.08984,-1.58398 -0.71451,-0.50466 -1.44606,-0.98476 -2.19336,-1.43946 -0.74685,-0.45425 -1.50905,-0.8829 -2.28515,-1.28515 -0.77603,-0.40183 -1.56557,-0.77705 -2.36719,-1.125 -0.80195,-0.34865 -1.61558,-0.6698 -2.43946,-0.96289 -0.82403,-0.29271 -1.65788,-0.55719 -2.5,-0.79297 -0.84161,-0.23596 -1.69109,-0.44311 -2.54687,-0.6211 -0.856,-0.17779 -1.71786,-0.32633 -2.58398,-0.44531 -0.86584,-0.11884 -1.7355,-0.20808 -2.60743,-0.26758 C 257.7486,256.03006 256.87446,256.00009 256,256 Z" />
  </g>
</svg>
